{"title":"High School Musical 2006 DVDrip Dutch Klam","uid":6755393,"size":1159168422,"categoryP":"video","categoryS":"movies","magnet":"?xt=urn:btih:a045b5ac2cba771cdc5db9b06c79f11a5db4ddae&amp;dn=High+School+Musical+2006+DVDrip+Dutch+Klam&amp;tr=udp%3A%2F%2Ftracker.openbittorrent.com%3A80&amp;tr=udp%3A%2F%2Fopen.demonii.com%3A1337&amp;tr=udp%3A%2F%2Ftracker.coppersurfer.tk%3A6969&amp;tr=udp%3A%2F%2Fexodus.desync.com%3A6969","seeders":3,"leechers":0,"uploader":"Klambake","files":-1,"time":1319022007,"description":"With: Zac Efron, Vanessa Hudgens and Ashley Tisdale\n\nDutch spoken, Nederlands gesproken\nWanneer Troy (Zac Efron) en Gabriella (Vanessa Hudgens) tijdens een karaoke wedstrijd met elkaar zingen ontdekken ze dat ze talent hebben. Maar er worden van allebei hele andere dingen verwacht op hun school. Troy moet het basketbalteam leiden naar de overwinning en Gabriella moet hetzelfde met haar scheikundeclub. Als hun 'groep' erachter komt dat zij auditie hebben gedaan, dwarsbomen zij hun plannen. Tevens zijn de sluwe broer en zus Sharpay (Ashley Tisdale) en Ryan (Lucas Grabeel) ook van plan de hoofdrollen te krijgen en ze zijn tot alles bereid om dat voor elkaar krijgen.\n\nTroy and Gabriella - two teens who are worlds apart - meet at a karaoke contest and discover their mutual love for music. \n\n------------------ Dutch Friends ------------------\nYou can find my Friends at: http://www.Film-Test.nl \n------ They got my dutch subs ----- and more ------\n\nGeneral:\n\nComplete name                    : High School Musical\\High School Musical.avi\nFormat                           : AVI\nFormat/Info                      : Audio Video Interleave\nFile size                        : 1.08 GiB\nDuration                         : 1h 33mn\nOverall bit rate                 : 1 645 Kbps\n\nVideo:\n\nFormat                           : MPEG-4 Visual\nFormat profile                   : Simple@L3\nFormat settings, BVOP            : No\nFormat settings, QPel            : No\nFormat settings, GMC             : No warppoints\nFormat settings, Matrix          : Default (H.263)\nCodec ID                         : XVID\nCodec ID/Hint                    : XviD\nDuration                         : 1h 33mn\nBit rate                         : 1 442 Kbps\nWidth                            : 640 pixels\nHeight                           : 480 pixels\nDisplay aspect ratio             : 4:3\nFrame rate                       : 25.000 fps\nColor space                      : YUV\nChroma subsampling               : 4:2:0\nBit depth                        : 8 bits\nScan type                        : Progressive\nCompression mode                 : Lossy\nBits/(Pixel*Frame)               : 0.188\nStream size                      : 968 MiB (88%)\nWriting library                  : XviD 1.1.2 (UTC 2006-11-01)\n\nAudio:\n\nFormat                           : AC-3\nFormat/Info                      : Audio Coding 3\nMode extension                   : CM (complete main)\nCodec ID                         : 2000\nDuration                         : 1h 33mn\nBit rate mode                    : Constant\nBit rate                         : 192 Kbps\nChannel(s)                       : 2 channels\nChannel positions                : Front: L R\nSampling rate                    : 48.0 KHz\nBit depth                        : 16 bits\nCompression mode                 : Lossy\nStream size                      : 129 MiB (12%)\nAlignment                        : Aligned on interleaves\nInterleave, duration             : 32 ms (0.80 video frame)\nInterleave, preload duration     : 2560 ms\n\n\n","torrent":{"xt":"urn:btih:a045b5ac2cba771cdc5db9b06c79f11a5db4ddae","amp;dn":"High+School+Musical+2006+DVDrip+Dutch+Klam","amp;tr":["udp%3A%2F%2Ftracker.openbittorrent.com%3A80","udp%3A%2F%2Fopen.demonii.com%3A1337","udp%3A%2F%2Ftracker.coppersurfer.tk%3A6969","udp%3A%2F%2Fexodus.desync.com%3A6969"],"infoHash":"a045b5ac2cba771cdc5db9b06c79f11a5db4ddae","infoHashBuffer":{"type":"Buffer","data":[160,69,181,172,44,186,119,28,220,93,185,176,108,121,241,26,93,180,221,174]},"announce":[],"urlList":[]}}